<?xml version="1.0" standalone="no"?>
<!DOCTYPE svg PUBLIC "-//W3C//DTD SVG 20010904//EN"
 "http://www.w3.org/TR/2001/REC-SVG-20010904/DTD/svg10.dtd">
<svg version="1.0" xmlns="http://www.w3.org/2000/svg"
 width="572.000000pt" height="436.000000pt" viewBox="0 0 572.000000 436.000000"
 preserveAspectRatio="xMidYMid meet">

<g transform="translate(0.000000,436.000000) scale(0.100000,-0.100000)"
fill="#000000" stroke="none">
<path d="M3548 3875 c-125 -34 -242 -126 -332 -258 -64 -96 -71 -99 -161 -77
-62 15 -348 13 -440 -4 -163 -30 -362 -114 -503 -212 -34 -24 -70 -44 -78 -44
-8 0 -51 29 -97 65 -155 124 -275 164 -398 135 -86 -21 -159 -76 -262 -198
-242 -289 -368 -585 -454 -1067 -23 -129 -25 -555 -4 -683 18 -107 14 -111
-77 -93 -171 33 -184 28 -190 -75 -3 -64 -1 -75 37 -150 68 -135 171 -242 346
-358 124 -82 265 -138 381 -151 136 -15 268 37 361 141 32 35 65 64 73 64 8 0
31 -24 50 -52 44 -65 160 -184 220 -225 25 -17 79 -48 120 -69 64 -32 86 -38
156 -42 81 -4 82 -4 119 30 46 42 58 95 44 199 -18 137 -24 124 56 122 325
-10 453 -7 539 10 193 39 380 117 534 221 45 31 86 56 91 56 17 0 17 -37 0
-135 -37 -211 -13 -310 91 -363 62 -32 181 -28 255 10 99 51 182 165 245 336
13 35 30 66 37 69 8 3 27 -4 41 -16 128 -102 252 -151 399 -159 128 -6 222 14
348 73 147 69 235 147 290 255 83 166 73 415 -28 632 -38 82 -65 108 -114 108
-26 0 -39 -9 -74 -50 -23 -27 -47 -50 -54 -50 -6 0 -19 36 -29 83 -76 362
-176 669 -296 912 -185 376 -403 671 -608 824 -74 56 -208 132 -273 156 -119
44 -266 56 -361 30z m282 -52 c122 -33 268 -111 379 -200 55 -45 176 -174 214
-229 12 -17 47 -65 78 -105 31 -41 68 -94 82 -119 57 -100 157 -281 157 -285
0 -2 23 -52 51 -112 29 -59 55 -119 60 -133 4 -14 17 -50 29 -80 12 -30 24
-66 27 -80 3 -14 9 -30 14 -35 4 -6 12 -29 18 -50 5 -22 18 -71 29 -110 17
-63 35 -146 63 -290 5 -27 14 -87 19 -133 9 -79 22 -122 38 -122 4 0 38 43 76
95 44 62 74 95 86 95 22 0 59 -58 89 -140 71 -196 72 -395 3 -539 -32 -64
-102 -145 -146 -168 -17 -9 -33 -19 -36 -23 -13 -20 -192 -93 -257 -106 -130
-25 -202 -17 -333 33 -85 33 -151 78 -224 152 l-59 60 11 53 c6 29 14 76 18
103 4 28 11 56 17 64 8 9 11 102 12 275 0 214 -3 271 -16 316 -17 55 -35 124
-49 190 -30 135 -187 430 -229 430 -11 0 -23 5 -26 10 -3 6 -16 10 -28 10 -12
0 -35 7 -51 15 -33 17 -56 19 -56 5 0 -5 4 -10 9 -10 5 0 12 -8 16 -19 3 -10
26 -45 52 -77 79 -101 209 -405 201 -471 -2 -24 -8 -29 -36 -31 -28 -3 -41 4
-82 42 -48 45 -79 58 -81 34 -2 -37 3 -153 7 -158 3 -2 13 1 24 7 25 16 30 0
30 -94 0 -117 -39 -273 -106 -430 -8 -17 -14 -36 -14 -42 0 -6 -4 -11 -10 -11
-5 0 -10 -6 -10 -14 0 -21 -17 -29 -24 -11 -3 8 1 21 9 29 18 18 19 36 3 37
-10 0 -10 2 0 6 6 2 12 11 12 19 0 8 5 14 10 14 6 0 10 15 10 34 0 19 4 37 9
41 5 3 12 31 16 63 3 31 11 66 17 76 16 29 24 154 9 140 -6 -6 -14 -35 -17
-65 -3 -30 -15 -74 -26 -98 -11 -25 -22 -70 -25 -100 -4 -32 -14 -66 -24 -80
-11 -13 -19 -32 -19 -41 0 -10 -7 -23 -15 -30 -8 -7 -15 -18 -15 -25 0 -17
-37 -48 -48 -41 -6 3 -8 -2 -6 -11 6 -25 -150 -180 -163 -163 -3 3 -9 -3 -14
-12 -6 -10 -19 -18 -30 -18 -13 0 -18 -4 -13 -12 5 -7 2 -9 -9 -5 -9 3 -18 0
-21 -9 -3 -8 -17 -14 -31 -14 -22 0 -25 -3 -20 -21 7 -20 5 -21 -24 -16 -24 5
-31 3 -31 -9 0 -20 -103 -66 -152 -68 -28 -1 -38 -5 -38 -18 0 -15 -7 -16 -50
-11 -34 4 -50 2 -50 -6 0 -6 -8 -11 -18 -11 -10 0 -23 -5 -30 -12 -6 -6 -36
-10 -69 -9 -111 3 -128 3 -178 -2 -27 -3 -57 -6 -65 -6 -13 -1 -13 -2 0 -11
11 -7 3 -10 -30 -10 -26 0 -51 5 -57 11 -6 6 -49 13 -95 16 -84 5 -193 28
-261 57 -21 8 -41 15 -45 14 -7 -1 -89 38 -138 66 -21 11 -95 60 -122 81 -55
40 -150 154 -158 187 -3 18 -12 28 -24 28 -23 0 -32 14 -55 85 -10 33 -22 65
-26 70 -10 15 -32 86 -35 115 -2 14 -4 95 -4 180 -1 159 5 201 50 365 12 44
25 94 30 112 8 34 93 186 135 243 43 59 135 148 186 181 27 17 49 36 49 42 0
6 3 7 6 4 4 -4 19 2 33 12 14 10 52 30 83 44 40 19 81 52 140 113 46 47 108
102 138 122 30 20 57 39 60 43 7 10 97 54 150 74 51 19 110 32 189 44 87 12
372 -13 417 -37 10 -5 39 -13 64 -17 61 -9 152 -35 167 -47 9 -7 15 -5 19 6 6
16 3 25 -15 56 -5 8 -17 32 -27 53 -25 51 -95 135 -130 156 -30 18 -185 61
-221 61 -87 0 59 233 206 328 66 42 98 53 181 62 78 8 136 3 210 -17z m-2113
-395 c32 -12 81 -36 110 -54 67 -43 193 -162 193 -183 0 -17 -33 -51 -49 -51
-21 0 -165 -113 -236 -186 -66 -68 -85 -95 -108 -154 -39 -100 -39 -159 1
-240 31 -63 32 -67 23 -140 -5 -41 -14 -100 -20 -130 -29 -157 -34 -217 -38
-476 -4 -203 -1 -292 7 -320 7 -21 16 -64 20 -94 14 -100 31 -184 39 -195 16
-19 44 -140 43 -181 0 -28 -12 -57 -36 -95 -58 -91 -63 -96 -133 -135 l-68
-38 -109 2 c-85 1 -124 7 -181 26 -263 88 -533 336 -575 528 -9 38 -9 61 -1
81 10 26 13 27 53 21 24 -4 54 -11 68 -17 14 -5 54 -15 90 -23 89 -19 97 -10
75 77 -52 202 -52 545 1 844 8 50 19 119 24 155 5 36 14 74 18 85 5 11 17 47
27 80 78 265 227 515 424 713 119 119 212 147 338 100z m1613 -57 c73 -19 90
-27 90 -45 0 -54 -99 -73 -426 -82 -138 -4 -263 -4 -278 0 -42 10 -35 47 14
69 67 31 193 66 275 77 81 11 246 1 325 -19z m-1095 -289 c-33 -45 -174 -182
-188 -182 -6 0 -25 -11 -43 -25 -18 -14 -38 -25 -44 -25 -6 0 -28 -11 -50 -25
-22 -14 -43 -25 -47 -25 -5 0 -21 -7 -37 -15 -29 -15 -121 -23 -132 -12 -10 9
35 68 121 161 26 28 208 146 225 146 5 0 33 11 62 24 29 14 76 31 103 39 47
14 50 13 53 -5 2 -10 -9 -36 -23 -56z m-22 -120 c-5 -19 22 -50 34 -39 3 4 11
0 18 -9 9 -13 3 -24 -35 -62 -25 -26 -62 -58 -83 -72 -20 -14 -37 -28 -37 -32
0 -5 -5 -8 -11 -8 -15 0 -83 -32 -90 -43 -7 -10 -20 17 -25 52 -1 13 -11 32
-20 42 -17 19 -16 20 14 31 17 7 36 22 43 35 7 13 19 23 26 23 7 0 16 7 19 15
4 8 12 15 20 15 7 0 17 6 21 13 7 12 88 55 105 57 3 0 4 -8 1 -18z"/>
<path d="M3155 2608 c-22 -11 -41 -25 -43 -29 -2 -5 -9 -9 -16 -9 -15 0 -56
-54 -56 -73 0 -24 42 -29 65 -8 27 25 122 68 168 76 20 4 37 9 37 12 0 2 -12
15 -27 28 -34 30 -75 31 -128 3z"/>
<path d="M2040 2541 c-27 -19 2 -45 57 -52 57 -7 170 -55 182 -77 10 -18 39
-10 47 13 15 39 -108 111 -206 120 -38 4 -71 2 -80 -4z"/>
<path d="M3270 2462 c-8 -4 -26 -17 -40 -29 -57 -50 -166 -135 -187 -145 -26
-13 -58 -70 -50 -91 9 -24 48 -46 98 -56 58 -12 202 -48 261 -65 42 -12 49
-12 77 5 24 14 31 26 31 49 0 24 -7 33 -40 50 -21 11 -47 20 -57 20 -10 0 -49
8 -86 17 -49 13 -67 22 -65 33 2 8 32 36 68 63 72 54 80 63 80 95 0 43 -49 73
-90 54z"/>
<path d="M2021 2361 c-44 -44 -19 -80 101 -151 90 -53 91 -58 15 -128 -84 -78
-87 -81 -87 -105 0 -35 23 -60 56 -60 31 0 82 40 212 170 l63 63 -16 30 c-9
17 -42 47 -73 67 -31 20 -86 55 -122 78 -83 55 -121 64 -149 36z"/>
<path d="M3616 2022 c-8 -13 29 -69 59 -88 39 -25 51 -7 33 48 -13 39 -18 43
-50 46 -20 2 -39 -1 -42 -6z"/>
<path d="M3503 1964 c-6 -16 22 -60 49 -78 21 -13 55 11 38 28 -5 5 -10 18
-10 28 0 33 -65 52 -77 22z"/>
<path d="M3040 1899 c-79 -8 -154 -17 -320 -39 -36 -4 -78 -12 -95 -18 -16 -5
-66 -18 -110 -27 -44 -9 -87 -19 -95 -22 -8 -4 -49 -18 -90 -32 l-75 -26 1
-75 c1 -96 10 -147 41 -240 50 -151 124 -252 229 -311 53 -31 231 -69 318 -69
75 0 214 25 226 40 3 4 26 12 53 20 31 8 58 24 77 46 16 19 33 34 37 34 15 0
113 170 113 196 0 11 5 25 12 32 20 20 23 278 4 364 -8 40 -17 82 -18 93 -2
11 -14 25 -28 32 -28 14 -147 15 -280 2z"/>
<path d="M1937 1842 c-47 -29 -50 -92 -4 -92 26 0 44 30 49 79 4 31 -10 35
-45 13z"/>
<path d="M2072 1833 c-18 -7 -34 -51 -27 -74 4 -12 16 -19 30 -19 20 0 25 7
31 35 10 53 -1 71 -34 58z"/>
</g>
</svg>
